<svg xmlns="http://www.w3.org/2000/svg" xmlns:xlink="http://www.w3.org/1999/xlink" width="260" height="260" viewBox="0 0 260 260">
  <defs>
    <clipPath id="clip-favicon_portfolio2">
      <rect width="260" height="260"/>
    </clipPath>
  </defs>
  <g id="favicon_portfolio2" clip-path="url(#clip-favicon_portfolio2)">
    <rect width="260" height="260" fill="#7e5756"/>
    <path id="Path_4" data-name="Path 4" d="M90.88-230.72q16.64,0,26.56,3.2a99.41,99.41,0,0,1,20.16,9.28q3.52,1.92,6.24,3.2a11.324,11.324,0,0,0,4.64,1.28q2.88,0,4.48-3.36t2.56-10.72h7.36q-1.6,21.44-1.6,72.96h-7.36a104.9,104.9,0,0,0-7.84-32.96,63.84,63.84,0,0,0-18.56-25.44,43.052,43.052,0,0,0-28-9.76q-15.68,0-25.44,8.8T64.32-190.4a38.379,38.379,0,0,0,4.8,19.52,54.145,54.145,0,0,0,13.44,15.2q8.64,6.88,26.56,18.72l10.24,7.04a313.949,313.949,0,0,1,29.76,21.76,78.506,78.506,0,0,1,17.76,21.6q6.88,12.32,6.88,28.64,0,20.48-10.56,34.4T134.56-2.56Q116.48,4.48,94.4,4.48q-17.92,0-29.76-3.2A98.527,98.527,0,0,1,42.88-7.36Q35.84-11.84,32-11.84q-2.88,0-4.48,3.36T24.96,2.24H17.6q1.28-20.16,1.28-86.4h7.36q2.24,35.84,16,58.08T84.48-3.84q17.28,0,28.48-9.28t11.2-26.56q0-17.92-11.52-30.72T76.16-99.2q-19.2-12.48-30.72-21.76a78.963,78.963,0,0,1-18.88-21.92q-7.36-12.64-7.36-29.28,0-19.2,9.76-32.48a57.686,57.686,0,0,1,26.08-19.68A97.352,97.352,0,0,1,90.88-230.72Z" transform="translate(37 244)" fill="#fff"/>
  </g>
</svg>
