<svg xmlns="http://www.w3.org/2000/svg" xmlns:xlink="http://www.w3.org/1999/xlink" width="260" height="260" viewBox="0 0 260 260">
  <defs>
    <clipPath id="clip-favicon_portfolio">
      <rect width="260" height="260"/>
    </clipPath>
  </defs>
  <g id="favicon_portfolio" clip-path="url(#clip-favicon_portfolio)">
    <rect width="260" height="260" fill="#7e5756"/>
    <path id="Path_5" data-name="Path 5" d="M37.95-39.6c0-14.19,7.26-23.43,19.47-35.97,1.98-1.65,2.31-2.64.66-4.62l-1.65-2.64c-1.32-1.65-2.31-1.32-4.62-.33C33.33-72.27,18.15-55.44,18.15-33.66,18.15-12.87,32.67,3.3,61.38,3.3c35.64,0,56.43-26.4,56.43-59.07,0-52.47-53.46-56.76-53.46-99.66,0-26.73,19.14-57.09,50.82-57.09,18.81,0,29.37,10.89,29.37,28.71,0,16.5-9.24,35.31-31.35,47.52-1.65.66-3.63,1.98-2.64,4.95l.99,2.97c.33,2.31,1.65,3.3,3.96,2.64,33.66-6.93,54.78-34.32,54.78-60.39,0-24.09-18.15-44.88-52.14-44.88-43.23,0-78.54,33.33-78.54,79.2,0,56.43,55.11,60.39,55.11,100.98,0,16.83-9.9,35.64-32.01,35.64C44.55-15.18,37.95-27.39,37.95-39.6Z" transform="translate(45 242)" fill="#fff"/>
  </g>
</svg>
